<?xml version="1.0" standalone="no"?>
<!DOCTYPE svg PUBLIC "-//W3C//DTD SVG 20010904//EN"
 "http://www.w3.org/TR/2001/REC-SVG-20010904/DTD/svg10.dtd">
<svg version="1.0" xmlns="http://www.w3.org/2000/svg"
 width="512.000000pt" height="512.000000pt" viewBox="0 0 512.000000 512.000000"
 preserveAspectRatio="xMidYMid meet">

<g transform="translate(0.000000,512.000000) scale(0.100000,-0.100000)"
fill="#000000" stroke="none">
<path d="M4300 4710 c-25 -4 -76 -20 -115 -36 -59 -23 -84 -41 -156 -113 -108
-109 -387 -414 -1039 -1136 -1070 -1186 -1243 -1376 -1251 -1373 -4 2 -130
109 -279 238 -454 392 -526 441 -670 462 -112 17 -210 0 -320 -54 -70 -34
-101 -57 -176 -134 -203 -205 -273 -383 -230 -583 29 -140 82 -215 273 -394
296 -279 1073 -980 1194 -1079 127 -104 314 -133 496 -77 128 40 158 73 1304
1404 693 805 1280 1493 1512 1770 183 218 199 247 220 386 14 99 -2 209 -43
296 -49 106 -265 315 -385 373 -93 45 -242 68 -335 50z"/>
</g>
</svg>
