<?xml version="1.0" standalone="no"?>
<!DOCTYPE svg PUBLIC "-//W3C//DTD SVG 20010904//EN"
 "http://www.w3.org/TR/2001/REC-SVG-20010904/DTD/svg10.dtd">
<svg version="1.0" xmlns="http://www.w3.org/2000/svg"
 width="512.000000pt" height="512.000000pt" viewBox="0 0 512.000000 512.000000"
 preserveAspectRatio="xMidYMid meet">

<g transform="translate(0.000000,512.000000) scale(0.100000,-0.100000)"
fill="#000000" stroke="none">
<path d="M2340 4844 c-520 -61 -955 -256 -1336 -600 l-92 -84 -4 134 c-3 117
-6 138 -24 162 -39 53 -71 69 -134 69 -63 0 -95 -16 -134 -69 -20 -27 -21 -39
-21 -386 0 -348 1 -359 21 -387 11 -15 36 -38 54 -50 33 -23 37 -23 377 -23
298 0 350 2 379 16 50 24 77 68 82 133 5 70 -22 115 -88 149 -39 19 -60 22
-164 22 l-120 0 71 65 c171 156 293 240 488 335 152 74 245 108 394 145 178
44 237 50 471 50 234 0 293 -6 471 -50 144 -36 240 -71 384 -140 537 -257 921
-734 1064 -1320 30 -125 42 -209 50 -361 9 -163 23 -200 94 -235 74 -38 153
-14 206 62 23 33 23 38 18 189 -7 179 -24 293 -72 475 -102 392 -306 746 -595
1035 -341 341 -770 561 -1260 646 -91 15 -494 28 -580 18z"/>
<path d="M2410 4299 c-142 -60 -181 -235 -76 -345 l42 -43 -99 -163 c-166
-275 -197 -360 -197 -551 0 -115 21 -218 67 -319 36 -82 30 -90 -83 -104 -205
-25 -372 -108 -504 -250 -25 -27 -97 -134 -160 -239 -62 -104 -114 -191 -116
-193 -1 -2 -24 4 -51 13 -87 30 -181 -3 -237 -82 -57 -82 -44 -208 29 -272 19
-16 371 -232 783 -479 576 -346 760 -451 793 -456 136 -20 267 109 243 241 -8
47 -48 119 -74 133 -11 6 -20 15 -20 19 0 5 52 96 115 201 144 241 166 303
173 481 5 140 -12 235 -64 350 -37 83 -31 91 82 105 186 23 333 89 460 208 70
65 92 96 199 275 112 188 122 201 145 196 107 -24 168 -14 227 38 85 75 97
190 29 290 -12 18 -278 183 -788 489 l-770 462 -62 3 c-33 2 -72 -2 -86 -8z"/>
<path d="M370 2709 c-32 -13 -68 -47 -86 -81 -28 -53 -10 -353 32 -543 134
-602 480 -1108 987 -1442 665 -439 1537 -496 2252 -148 215 104 367 208 556
377 l97 87 4 -134 c3 -116 6 -137 24 -161 39 -53 71 -69 134 -69 63 0 95 16
134 69 20 27 21 39 21 386 0 348 -1 359 -21 387 -11 15 -36 38 -54 51 -33 22
-37 22 -377 22 -298 0 -350 -2 -379 -16 -50 -24 -77 -68 -82 -133 -5 -70 22
-115 88 -148 38 -20 60 -23 165 -23 l120 -1 -55 -50 c-243 -221 -487 -366
-760 -454 -237 -76 -413 -100 -674 -92 -303 9 -522 62 -791 192 -412 199 -729
517 -925 927 -117 246 -174 474 -189 753 -7 122 -11 148 -30 179 -39 63 -124
91 -191 65z"/>
</g>
</svg>
